<svg width="226" height="227" viewBox="0 0 226 227" fill="none" xmlns="http://www.w3.org/2000/svg">
<path d="M116.408 3.59043C120.785 14.5769 135.344 16.81 142.847 7.78852C145.259 4.93024 149.903 6.4487 150.171 10.2002C150.975 21.9906 164.016 28.6897 174.02 22.3479C177.146 20.3828 181.166 23.2411 180.272 26.9033C177.414 38.3364 187.775 48.6976 199.209 45.8393C202.781 44.9461 205.729 48.8763 203.764 52.0918C197.511 62.0958 204.121 75.1367 215.912 75.9406C219.663 76.2085 221.182 80.8532 218.323 83.2649C209.302 90.8572 211.535 105.327 222.521 109.704C226.005 111.133 226.005 115.956 222.521 117.386C211.535 121.762 209.302 136.322 218.323 143.825C221.182 146.236 219.663 150.881 215.912 151.149C204.121 151.953 197.511 164.994 203.764 174.998C205.729 178.124 202.871 182.143 199.209 181.25C187.775 178.392 177.414 188.753 180.272 200.186C181.166 203.759 177.236 206.707 174.02 204.742C164.016 198.489 150.975 205.099 150.171 216.889C149.903 220.641 145.259 222.159 142.847 219.301C135.255 210.28 120.785 212.513 116.408 223.499C114.979 226.983 110.155 226.983 108.726 223.499C104.349 212.513 89.7901 210.28 82.2871 219.301C79.8754 222.159 75.2307 220.641 74.9628 216.889C74.1589 205.099 61.118 198.4 51.114 204.742C47.9878 206.707 43.9683 203.848 44.8616 200.186C47.7198 188.753 37.3586 178.392 25.9255 181.25C22.3526 182.143 19.405 178.213 21.3701 174.998C27.6226 164.994 21.0128 151.953 9.22241 151.149C5.47092 150.881 3.95246 146.236 6.81074 143.825C15.8322 136.232 13.5991 121.762 2.61264 117.386C-0.870881 115.956 -0.870881 111.133 2.61264 109.704C13.5991 105.327 15.8322 90.7679 6.81074 83.2649C3.95246 80.8532 5.47092 76.2085 9.22241 75.9406C21.0128 75.1367 27.6226 62.0958 21.3701 52.0918C19.405 48.9656 22.2633 44.9461 25.9255 45.8393C37.3586 48.6976 47.7198 38.3364 44.8616 26.9033C43.9683 23.3304 47.8985 20.3828 51.114 22.3479C61.118 28.6004 74.1589 21.9906 74.9628 10.2002C75.2307 6.4487 79.8754 4.93024 82.2871 7.78852C89.8794 16.81 104.349 14.5769 108.726 3.59043C110.155 0.106902 114.979 0.106902 116.408 3.59043Z" fill="#9EF501"/>
<path d="M29.3867 93.4475H44.5713C44.8393 96.2164 47.1616 98.7174 51.0024 98.7174C55.1112 98.7174 57.5229 95.8591 57.5229 92.6436C57.5229 89.428 55.2005 86.6591 51.0024 86.6591C47.0723 86.6591 44.5713 89.16 44.5713 93.0902L29.3867 91.7504C29.8333 80.8532 38.2295 73.6182 51.0024 73.6182C63.7754 73.6182 72.6182 81.2105 72.6182 92.6436C72.6182 104.077 64.1327 111.669 51.0024 111.669C37.8722 111.669 29.8333 104.434 29.3867 93.4475Z" fill="black"/>
<path d="M74.5833 74.4221H89.6785L99.1466 91.9291V74.4221H112.545V110.687H97.4495L87.9814 93.1796V110.687H74.5833V74.4221Z" fill="black"/>
<path d="M128.801 85.498V88.0883H146.933V96.7524H128.801V99.3428H147.559V110.776H114.688V74.5115H147.291V85.498H128.712H128.801Z" fill="black"/>
<path d="M49.5733 141.592C53.5927 141.592 54.3966 141.324 54.3966 140.252C54.3966 139.18 53.4141 138.912 50.2879 138.912C36.2644 138.912 29.6547 135.339 29.6547 127.389C29.6547 119.44 36.979 115.42 51.3597 115.42C57.6122 115.42 64.0433 116.403 69.5812 118.457L68.3307 129.444C61.5423 127.479 56.2724 127.032 51.0024 127.032C47.6082 127.032 46.2684 127.3 46.2684 128.372C46.2684 129.444 47.3403 129.712 50.0199 129.712C65.1152 129.712 70.921 133.195 70.921 141.234C70.921 149.273 64.6686 153.471 52.0743 153.471C43.946 153.471 36.1751 152.399 29.9226 149.988L31.2624 138.644C38.1402 141.056 44.1247 141.592 49.5733 141.592Z" fill="black"/>
<path d="M72.9755 152.399V116.135H86.9989V128.015H98.7V116.135H112.723V152.399H98.7V139.626H86.9989V152.399H72.9755Z" fill="black"/>
<path d="M114.867 135.16H130.052C130.32 137.929 132.642 140.43 136.483 140.43C140.592 140.43 143.003 137.572 143.003 134.356C143.003 131.141 140.681 128.372 136.483 128.372C132.553 128.372 130.052 130.873 130.052 134.803L114.867 133.463C115.314 122.566 123.71 115.331 136.483 115.331C149.256 115.331 158.099 122.923 158.099 134.356C158.099 145.79 149.613 153.382 136.483 153.382C123.353 153.382 115.314 146.147 114.867 135.16Z" fill="black"/>
<path d="M170.514 152.399V129.087H160.153V116.135H195.613V129.087H185.252V152.399H170.603H170.514Z" fill="black"/>
<path d="M190.343 80.3173H180.339C179.268 76.9231 176.231 74.4221 172.569 74.4221C168.906 74.4221 165.78 76.9231 164.798 80.3173H154.794C151.935 80.3173 149.524 82.6397 149.524 85.5873V105.506C149.524 108.364 151.846 110.776 154.794 110.776H190.433C193.291 110.776 195.703 108.453 195.703 105.506V85.5873C195.703 82.729 193.38 80.3173 190.433 80.3173H190.343ZM172.479 103.273C168.192 103.273 164.708 99.7893 164.708 95.5019C164.708 91.2145 168.192 87.731 172.479 87.731C176.767 87.731 180.25 91.2145 180.25 95.5019C180.25 99.7893 176.767 103.273 172.479 103.273ZM182.126 88.0883C181.054 88.0883 180.161 87.195 180.161 86.1232C180.161 85.0513 181.054 84.1581 182.126 84.1581C183.198 84.1581 184.091 85.0513 184.091 86.1232C184.091 87.195 183.198 88.0883 182.126 88.0883Z" fill="black"/>
</svg>
