<svg width="164" height="168" viewBox="0 0 164 168" fill="none" xmlns="http://www.w3.org/2000/svg">
<g clip-path="url(#clip0_410_6275)">
<path d="M84.8234 2.61551C87.9941 10.7641 98.5416 12.4203 103.977 5.72921C105.724 3.60925 109.089 4.73548 109.283 7.51793C109.866 16.2628 119.313 21.2315 126.56 16.5278C128.825 15.0703 131.737 17.1903 131.09 19.9065C129.019 28.3863 136.525 36.0712 144.808 33.9512C147.396 33.2887 149.532 36.2037 148.108 38.5887C143.578 46.0085 148.367 55.6809 156.908 56.2771C159.626 56.4759 160.726 59.9208 158.656 61.7095C152.12 67.3407 153.738 78.073 161.697 81.3192C164.22 82.3792 164.22 85.9566 161.697 87.0166C153.738 90.2628 152.12 101.061 158.656 106.626C160.726 108.415 159.626 111.86 156.908 112.059C148.367 112.655 143.578 122.327 148.108 129.747C149.532 132.066 147.461 135.047 144.808 134.385C136.525 132.265 129.019 139.949 131.09 148.429C131.737 151.079 128.89 153.265 126.56 151.808C119.313 147.171 109.866 152.073 109.283 160.818C109.089 163.6 105.724 164.727 103.977 162.607C98.4768 155.915 87.9941 157.572 84.8234 165.72C83.7881 168.304 80.2938 168.304 79.2585 165.72C76.0878 157.572 65.5404 155.915 60.1049 162.607C58.3578 164.727 54.9929 163.6 54.7988 160.818C54.2164 152.073 44.769 147.104 37.5217 151.808C35.2569 153.265 32.3451 151.146 32.9921 148.429C35.0628 139.949 27.5566 132.265 19.274 134.385C16.6857 135.047 14.5503 132.132 15.9739 129.747C20.5034 122.327 15.715 112.655 7.17356 112.059C4.45581 111.86 3.35577 108.415 5.42643 106.626C11.962 100.995 10.3443 90.2628 2.38515 87.0166C-0.138473 85.9566 -0.138473 82.3792 2.38515 81.3192C10.3443 78.073 11.962 67.2744 5.42643 61.7095C3.35577 59.9208 4.45581 56.4759 7.17356 56.2771C15.715 55.6809 20.5034 46.0085 15.9739 38.5887C14.5503 36.2699 16.621 33.2887 19.274 33.9512C27.5566 36.0712 35.0628 28.3863 32.9921 19.9065C32.3451 17.2565 35.1922 15.0703 37.5217 16.5278C44.769 21.1652 54.2164 16.2628 54.7988 7.51793C54.9929 4.73548 58.3578 3.60925 60.1049 5.72921C65.6051 12.4203 76.0878 10.7641 79.2585 2.61551C80.2938 0.0318078 83.7881 0.0318078 84.8234 2.61551Z" fill="#9EF501"/>
<path d="M21.8623 69.2619H32.8627C33.0568 71.3157 34.7392 73.1706 37.5217 73.1706C40.4983 73.1706 42.2454 71.0507 42.2454 68.6657C42.2454 66.2807 40.563 64.227 37.5217 64.227C34.6745 64.227 32.8627 66.082 32.8627 68.9969L21.8623 68.0032C22.1858 59.9208 28.2684 54.5547 37.5217 54.5547C46.775 54.5547 53.1811 60.1858 53.1811 68.6657C53.1811 77.1456 47.0338 82.7767 37.5217 82.7767C28.0096 82.7767 22.1858 77.4106 21.8623 69.2619Z" fill="#0000EF"/>
<path d="M54.6046 55.1509H65.5403L72.3994 68.1357V55.1509H82.1056V82.0479H71.1699L64.3108 69.0631V82.0479H54.6046V55.1509Z" fill="#0000EF"/>
<path d="M93.8826 63.3659V65.2871H107.018V71.7133H93.8826V73.6345H107.471V82.1143H83.6587V55.2173H107.277V63.3659H93.8179H93.8826Z" fill="#0000EF"/>
<path d="M36.4863 104.97C39.3982 104.97 39.9806 104.771 39.9806 103.976C39.9806 103.181 39.2688 102.983 37.004 102.983C26.8448 102.983 22.0564 100.333 22.0564 94.4364C22.0564 88.5403 27.3625 85.5591 37.7805 85.5591C42.3101 85.5591 46.9691 86.2878 50.981 87.8115L50.0751 95.9602C45.1572 94.5027 41.3394 94.1714 37.5217 94.1714C35.0627 94.1714 34.0921 94.3702 34.0921 95.1652C34.0921 95.9602 34.8686 96.1589 36.8099 96.1589C47.7456 96.1589 51.9516 98.7426 51.9516 104.705C51.9516 110.667 47.422 113.781 38.2982 113.781C32.4097 113.781 26.7801 112.986 22.2505 111.197L23.2211 102.784C28.2037 104.573 32.5391 104.97 36.4863 104.97Z" fill="#0000EF"/>
<path d="M53.4399 112.986V86.0891H63.5991V94.9002H72.0759V86.0891H82.2351V112.986H72.0759V103.513H63.5991V112.986H53.4399Z" fill="#0000EF"/>
<path d="M83.7881 100.2H94.7885C94.9826 102.254 96.665 104.109 99.4475 104.109C102.424 104.109 104.171 101.989 104.171 99.6039C104.171 97.219 102.489 95.1653 99.4475 95.1653C96.6003 95.1653 94.7885 97.0202 94.7885 99.9352L83.7881 98.9414C84.1116 90.8591 90.1942 85.4929 99.4475 85.4929C108.701 85.4929 115.107 91.1241 115.107 99.6039C115.107 108.084 108.96 113.715 99.4475 113.715C89.9354 113.715 84.1116 108.349 83.7881 100.2Z" fill="#0000EF"/>
<path d="M124.101 112.986V95.6952H116.595V86.0891H142.284V95.6952H134.778V112.986H124.166H124.101Z" fill="#0000EF"/>
<path d="M138.467 59.5233H131.219C130.443 57.0058 128.243 55.1509 125.59 55.1509C122.937 55.1509 120.672 57.0058 119.96 59.5233H112.713C110.642 59.5233 108.895 61.2458 108.895 63.432V78.2055C108.895 80.3255 110.577 82.1142 112.713 82.1142H138.531C140.602 82.1142 142.349 80.3917 142.349 78.2055V63.432C142.349 61.312 140.667 59.5233 138.531 59.5233H138.467ZM125.525 76.5493C122.419 76.5493 119.895 73.9656 119.895 70.7856C119.895 67.6057 122.419 65.022 125.525 65.022C128.631 65.022 131.155 67.6057 131.155 70.7856C131.155 73.9656 128.631 76.5493 125.525 76.5493ZM132.513 65.287C131.737 65.287 131.09 64.6245 131.09 63.8295C131.09 63.0345 131.737 62.372 132.513 62.372C133.29 62.372 133.937 63.0345 133.937 63.8295C133.937 64.6245 133.29 65.287 132.513 65.287Z" fill="#0000EF"/>
</g>
<defs>
<clipPath id="clip0_410_6275">
<rect width="163" height="166.881" fill="white" transform="translate(0.573242 0.694336)"/>
</clipPath>
</defs>
</svg>
