<svg width="225" height="225" viewBox="0 0 225 225" fill="none" xmlns="http://www.w3.org/2000/svg">
<path d="M116.339 2.61109C120.713 13.5911 135.263 15.8228 142.762 6.80668C145.172 3.95011 149.814 5.46766 150.082 9.21692C150.885 21.0003 163.918 27.6954 173.916 21.3574C177.041 19.3935 181.058 22.2501 180.165 25.91C177.309 37.3363 187.664 47.6914 199.09 44.8349C202.661 43.9422 205.607 47.87 203.643 51.0836C197.394 61.0816 204 74.1148 215.783 74.9182C219.532 75.186 221.05 79.8279 218.193 82.2381C209.177 89.8259 211.409 104.287 222.389 108.661C225.87 110.09 225.87 114.91 222.389 116.339C211.409 120.713 209.177 135.263 218.193 142.762C221.05 145.172 219.532 149.814 215.783 150.082C204 150.885 197.394 163.918 203.643 173.916C205.607 177.041 202.75 181.058 199.09 180.165C187.664 177.309 177.309 187.664 180.165 199.09C181.058 202.661 177.13 205.607 173.916 203.643C163.918 197.394 150.885 204 150.082 215.783C149.814 219.532 145.172 221.05 142.762 218.193C135.174 209.177 120.713 211.409 116.339 222.389C114.91 225.87 110.09 225.87 108.661 222.389C104.287 211.409 89.7366 209.177 82.2381 218.193C79.8279 221.05 75.186 219.532 74.9182 215.783C74.1148 204 61.0816 197.305 51.0836 203.643C47.9592 205.607 43.9422 202.75 44.8349 199.09C47.6914 187.664 37.3363 177.309 25.91 180.165C22.3393 181.058 19.3935 177.13 21.3574 173.916C27.6061 163.918 21.0003 150.885 9.21692 150.082C5.46766 149.814 3.95011 145.172 6.80668 142.762C15.8228 135.174 13.5911 120.713 2.61109 116.339C-0.870363 114.91 -0.870363 110.09 2.61109 108.661C13.5911 104.287 15.8228 89.7366 6.80668 82.2381C3.95011 79.8279 5.46766 75.186 9.21692 74.9182C21.0003 74.1148 27.6061 61.0816 21.3574 51.0836C19.3935 47.9592 22.2501 43.9422 25.91 44.8349C37.3363 47.6914 47.6914 37.3363 44.8349 25.91C43.9422 22.3393 47.87 19.3935 51.0836 21.3574C61.0816 27.6061 74.1148 21.0003 74.9182 9.21692C75.186 5.46766 79.8279 3.95011 82.2381 6.80668C89.8259 15.8228 104.287 13.5911 108.661 2.61109C110.09 -0.870363 114.91 -0.870363 116.339 2.61109Z" fill="#9EF501"/>
<path d="M29 92.8293H44.1846C44.4526 95.5983 46.7749 98.0992 50.6157 98.0992C54.7245 98.0992 57.1362 95.241 57.1362 92.0254C57.1362 88.8098 54.8138 86.0409 50.6157 86.0409C46.6856 86.0409 44.1846 88.5419 44.1846 92.472L29 91.1322C29.4466 80.235 37.8428 73 50.6157 73C63.3886 73 72.2314 80.5923 72.2314 92.0254C72.2314 103.459 63.7459 111.051 50.6157 111.051C37.4855 111.051 29.4466 103.816 29 92.8293Z" fill="black"/>
<path d="M74 74H89.0953L98.5633 91.5069V74H111.961V110.264H96.8662L87.3982 92.7574V110.264H74V74Z" fill="black"/>
<path d="M128.113 84.9865V87.5768H146.245V96.241H128.113V98.8313H146.87V110.264H114V74H146.602V84.9865H128.023H128.113Z" fill="black"/>
<path d="M189.82 79.8952H179.816C178.744 76.501 175.707 74 172.045 74C168.383 74 165.256 76.501 164.274 79.8952H154.27C151.412 79.8952 149 82.2175 149 85.1651V105.084C149 107.942 151.322 110.354 154.27 110.354H189.909C192.767 110.354 195.179 108.031 195.179 105.084V85.1651C195.179 82.3069 192.857 79.8952 189.909 79.8952H189.82ZM171.956 102.851C167.668 102.851 164.185 99.3672 164.185 95.0798C164.185 90.7924 167.668 87.3089 171.956 87.3089C176.243 87.3089 179.726 90.7924 179.726 95.0798C179.726 99.3672 176.243 102.851 171.956 102.851ZM181.602 87.6661C180.53 87.6661 179.637 86.7729 179.637 85.7011C179.637 84.6292 180.53 83.736 181.602 83.736C182.674 83.736 183.567 84.6292 183.567 85.7011C183.567 86.7729 182.674 87.6661 181.602 87.6661Z" fill="black"/>
<path d="M50.397 139.499C54.2931 139.499 55.0723 139.239 55.0723 138.196C55.0723 137.154 54.1199 136.894 51.0896 136.894C37.4965 136.894 31.0896 133.419 31.0896 125.689C31.0896 117.959 38.1892 114.051 52.1286 114.051C58.1892 114.051 64.4229 115.006 69.7909 117.004L68.5788 127.687C61.9987 125.776 56.8905 125.342 51.7822 125.342C48.4922 125.342 47.1935 125.602 47.1935 126.645C47.1935 127.687 48.2325 127.947 50.8299 127.947C65.4619 127.947 71.0896 131.335 71.0896 139.152C71.0896 146.969 65.029 151.051 52.8212 151.051C44.9424 151.051 37.4099 150.009 31.3493 147.663L32.648 136.633C39.3147 138.978 45.1156 139.499 50.397 139.499Z" fill="black"/>
<path d="M73.0896 150.051V115.051H86.8491V126.516H98.3301V115.051H112.09V150.051H98.3301V137.723H86.8491V150.051H73.0896Z" fill="black"/>
<path d="M114.09 133.332H128.842C129.102 136.025 131.358 138.457 135.09 138.457C139.081 138.457 141.424 135.678 141.424 132.551C141.424 129.424 139.168 126.732 135.09 126.732C131.271 126.732 128.842 129.163 128.842 132.985L114.09 131.682C114.523 121.086 122.681 114.051 135.09 114.051C147.499 114.051 156.09 121.433 156.09 132.551C156.09 143.668 147.846 151.051 135.09 151.051C122.333 151.051 114.523 144.016 114.09 133.332Z" fill="black"/>
<path d="M168.316 150.051V127.551H158.09V115.051H193.09V127.551H182.863V150.051H168.404H168.316Z" fill="black"/>
</svg>
