<svg width="850" height="870" viewBox="0 0 850 870" fill="none" xmlns="http://www.w3.org/2000/svg">
<path d="M439.245 10.0906C455.76 52.5229 510.698 61.1474 539.009 26.3046C548.109 15.2653 565.635 21.1299 566.646 35.619C569.679 81.1561 618.887 107.029 656.635 82.536C668.432 74.9465 683.598 85.9858 680.228 100.13C669.443 144.287 708.539 184.305 751.68 173.265C765.162 169.815 776.284 184.995 768.869 197.414C745.276 236.051 770.217 286.418 814.706 289.523C828.862 290.558 834.592 308.497 823.806 317.811C789.766 347.134 798.191 403.021 839.647 419.925C852.792 425.444 852.792 444.073 839.647 449.593C798.191 466.497 789.766 522.728 823.806 551.706C834.592 561.021 828.862 578.96 814.706 579.995C770.217 583.099 745.276 633.466 768.869 672.104C776.284 684.178 765.499 699.702 751.68 696.252C708.539 685.213 669.443 725.23 680.228 769.388C683.598 783.187 668.769 794.571 656.635 786.981C618.887 762.833 569.679 788.361 566.646 833.898C565.635 848.388 548.109 854.252 539.009 843.213C510.361 808.37 455.76 816.995 439.245 859.427C433.853 872.881 415.653 872.881 410.26 859.427C393.745 816.995 338.808 808.37 310.497 843.213C301.397 854.252 283.871 848.388 282.86 833.898C279.826 788.361 230.619 762.488 192.87 786.981C181.074 794.571 165.907 783.532 169.278 769.388C180.063 725.23 140.966 685.213 97.8254 696.252C84.3439 699.702 73.2216 684.523 80.6365 672.104C104.229 633.466 79.2883 583.099 34.7992 579.995C20.6436 578.96 14.914 561.021 25.6992 551.706C59.7401 522.383 51.3141 466.497 9.85838 449.593C-3.28613 444.073 -3.28613 425.444 9.85838 419.925C51.3141 403.021 59.7401 346.789 25.6992 317.811C14.914 308.497 20.6436 290.558 34.7992 289.523C79.2883 286.418 104.229 236.051 80.6365 197.414C73.2216 185.34 84.0069 169.815 97.8254 173.265C140.966 184.305 180.063 144.287 169.278 100.13C165.907 86.3308 180.737 74.9465 192.87 82.536C230.619 106.684 279.826 81.1561 282.86 35.619C283.871 21.1299 301.397 15.2653 310.497 26.3046C339.145 61.1474 393.745 52.5229 410.26 10.0906C415.653 -3.36354 433.853 -3.36354 439.245 10.0906Z" fill="#9EF501"/>
<path d="M111.218 357.441H168.514C169.525 368.135 178.288 377.794 192.781 377.794C208.285 377.794 217.385 366.755 217.385 354.336C217.385 341.917 208.622 331.222 192.781 331.222C177.951 331.222 168.514 340.882 168.514 356.061L111.218 350.886C112.903 308.799 144.585 280.855 192.781 280.855C240.978 280.855 274.344 310.179 274.344 354.336C274.344 398.493 242.326 427.816 192.781 427.816C143.236 427.816 112.903 399.873 111.218 357.441Z" fill="black"/>
<path d="M281.759 283.96H338.719L374.445 351.576V283.96H425.001V424.021H368.041L332.315 356.406V424.021H281.759V283.96Z" fill="black"/>
<path d="M486.342 326.738V336.742H554.761V370.205H486.342V380.209H557.12V424.366H433.09V284.305H556.109V326.738H486.005H486.342Z" fill="black"/>
<path d="M187.389 543.384C202.555 543.384 205.589 542.349 205.589 538.209C205.589 534.069 201.881 533.034 190.085 533.034C137.17 533.034 112.229 519.235 112.229 488.532C112.229 457.829 139.866 442.305 194.129 442.305C217.722 442.305 241.989 446.1 262.885 454.034L258.167 496.467C232.552 488.877 212.666 487.152 192.781 487.152C179.974 487.152 174.918 488.187 174.918 492.327C174.918 496.467 178.963 497.502 189.074 497.502C246.033 497.502 267.941 510.956 267.941 542.004C267.941 573.052 244.348 589.266 196.826 589.266C166.155 589.266 136.833 585.126 113.24 575.812L118.296 531.999C144.248 541.314 166.829 543.384 187.389 543.384Z" fill="black"/>
<path d="M275.693 585.126V445.065H328.608V490.947H372.76V445.065H425.675V585.126H372.76V535.794H328.608V585.126H275.693Z" fill="black"/>
<path d="M433.764 518.545H491.06C492.071 529.24 500.834 538.899 515.327 538.899C530.831 538.899 539.931 527.86 539.931 515.441C539.931 503.021 531.168 492.327 515.327 492.327C500.497 492.327 491.06 501.986 491.06 517.165L433.764 511.991C435.449 469.903 467.13 441.96 515.327 441.96C563.523 441.96 596.89 471.283 596.89 515.441C596.89 559.598 564.872 588.921 515.327 588.921C465.782 588.921 435.449 560.978 433.764 518.545Z" fill="black"/>
<path d="M643.739 585.126V495.087H604.642V445.065H738.446V495.087H699.35V585.126H644.076H643.739Z" fill="black"/>
<path d="M718.561 306.729H680.813C676.769 293.62 665.309 283.96 651.491 283.96C637.672 283.96 625.876 293.62 622.168 306.729H584.42C573.635 306.729 564.535 315.698 564.535 327.082V404.013C564.535 415.052 573.298 424.366 584.42 424.366H718.898C729.684 424.366 738.784 415.397 738.784 404.013V327.082C738.784 316.043 730.021 306.729 718.898 306.729H718.561ZM651.154 395.388C634.976 395.388 621.831 381.934 621.831 365.375C621.831 348.816 634.976 335.362 651.154 335.362C667.331 335.362 680.476 348.816 680.476 365.375C680.476 381.934 667.331 395.388 651.154 395.388ZM687.554 336.742C683.509 336.742 680.139 333.292 680.139 329.152C680.139 325.013 683.509 321.563 687.554 321.563C691.598 321.563 694.969 325.013 694.969 329.152C694.969 333.292 691.598 336.742 687.554 336.742Z" fill="black"/>
</svg>
