<svg width="31" height="30" viewBox="0 0 31 30" fill="none" xmlns="http://www.w3.org/2000/svg">
<path d="M16.0118 0.348145C16.595 1.81214 18.5351 2.1097 19.5349 0.907558C19.8563 0.526681 20.4752 0.729022 20.5109 1.22892C20.618 2.80004 22.3558 3.69272 23.6888 2.84765C24.1054 2.5858 24.641 2.96667 24.522 3.45467C24.1411 4.97818 25.5218 6.35886 27.0453 5.97798C27.5214 5.85896 27.9142 6.38266 27.6523 6.81115C26.8192 8.14422 27.7 9.88197 29.2711 9.98909C29.771 10.0248 29.9733 10.6437 29.5924 10.9651C28.3903 11.9768 28.6879 13.905 30.1519 14.4882C30.616 14.6786 30.616 15.3214 30.1519 15.5118C28.6879 16.095 28.3903 18.0351 29.5924 19.0349C29.9733 19.3563 29.771 19.9752 29.2711 20.0109C27.7 20.118 26.8192 21.8558 27.6523 23.1888C27.9142 23.6054 27.5333 24.141 27.0453 24.022C25.5218 23.6411 24.1411 25.0218 24.522 26.5453C24.641 27.0214 24.1173 27.4142 23.6888 27.1523C22.3558 26.3192 20.618 27.2 20.5109 28.7711C20.4752 29.271 19.8563 29.4733 19.5349 29.0924C18.5232 27.8903 16.595 28.1879 16.0118 29.6519C15.8214 30.116 15.1786 30.116 14.9882 29.6519C14.405 28.1879 12.4649 27.8903 11.4651 29.0924C11.1437 29.4733 10.5248 29.271 10.4891 28.7711C10.382 27.2 8.64422 26.3073 7.31115 27.1523C6.89456 27.4142 6.35896 27.0333 6.47798 26.5453C6.85886 25.0218 5.47818 23.6411 3.95467 24.022C3.47858 24.141 3.0858 23.6173 3.34765 23.1888C4.18082 21.8558 3.30004 20.118 1.72892 20.0109C1.22902 19.9752 1.02668 19.3563 1.40756 19.0349C2.6097 18.0232 2.31214 16.095 0.848145 15.5118C0.383952 15.3214 0.383952 14.6786 0.848145 14.4882C2.31214 13.905 2.6097 11.9649 1.40756 10.9651C1.02668 10.6437 1.22902 10.0248 1.72892 9.98909C3.30004 9.88197 4.18082 8.14422 3.34765 6.81115C3.0858 6.39456 3.46667 5.85896 3.95467 5.97798C5.47818 6.35886 6.85886 4.97818 6.47798 3.45467C6.35896 2.97858 6.88266 2.5858 7.31115 2.84765C8.64422 3.68082 10.382 2.80004 10.4891 1.22892C10.5248 0.729022 11.1437 0.526681 11.4651 0.907558C12.4768 2.1097 14.405 1.81214 14.9882 0.348145C15.1786 -0.116048 15.8214 -0.116048 16.0118 0.348145Z" fill="#9EF501"/>
</svg>
