<svg width="68" height="68" viewBox="0 0 68 68" fill="none" xmlns="http://www.w3.org/2000/svg">
<rect x="0.5" y="0.5" width="67" height="67" rx="7" fill="black"/>
<rect x="0.5" y="0.5" width="67" height="67" rx="7" stroke="#6D6D6D"/>
<path d="M8.2301 29.718H9.5431L14.4311 37.245H14.4571V29.718H15.6271V39H14.2751L9.4261 31.551H9.4001V39H8.2301V29.718ZM17.8489 35.646C17.8489 36.0533 17.9009 36.4173 18.0049 36.738C18.1176 37.05 18.2693 37.3143 18.4599 37.531C18.6506 37.739 18.8716 37.8993 19.1229 38.012C19.3829 38.1247 19.6559 38.181 19.9419 38.181C20.2279 38.181 20.4966 38.1247 20.7479 38.012C21.0079 37.8993 21.2333 37.739 21.4239 37.531C21.6146 37.3143 21.7619 37.05 21.8659 36.738C21.9786 36.4173 22.0349 36.0533 22.0349 35.646C22.0349 35.2387 21.9786 34.879 21.8659 34.567C21.7619 34.2463 21.6146 33.9777 21.4239 33.761C21.2333 33.5443 21.0079 33.3797 20.7479 33.267C20.4966 33.1543 20.2279 33.098 19.9419 33.098C19.6559 33.098 19.3829 33.1543 19.1229 33.267C18.8716 33.3797 18.6506 33.5443 18.4599 33.761C18.2693 33.9777 18.1176 34.2463 18.0049 34.567C17.9009 34.879 17.8489 35.2387 17.8489 35.646ZM16.6789 35.646C16.6789 35.152 16.7483 34.6927 16.8869 34.268C17.0256 33.8347 17.2336 33.462 17.5109 33.15C17.7883 32.8293 18.1306 32.578 18.5379 32.396C18.9453 32.214 19.4133 32.123 19.9419 32.123C20.4793 32.123 20.9473 32.214 21.3459 32.396C21.7533 32.578 22.0956 32.8293 22.3729 33.15C22.6503 33.462 22.8583 33.8347 22.9969 34.268C23.1356 34.6927 23.2049 35.152 23.2049 35.646C23.2049 36.14 23.1356 36.5993 22.9969 37.024C22.8583 37.4487 22.6503 37.8213 22.3729 38.142C22.0956 38.454 21.7533 38.701 21.3459 38.883C20.9473 39.0563 20.4793 39.143 19.9419 39.143C19.4133 39.143 18.9453 39.0563 18.5379 38.883C18.1306 38.701 17.7883 38.454 17.5109 38.142C17.2336 37.8213 17.0256 37.4487 16.8869 37.024C16.7483 36.5993 16.6789 36.14 16.6789 35.646ZM27.5599 29.718H28.7949V39H27.5599V29.718ZM30.2902 32.279H31.3302V33.267H31.3562C31.8589 32.5043 32.5825 32.123 33.5272 32.123C33.9432 32.123 34.3202 32.2097 34.6582 32.383C34.9962 32.5563 35.2345 32.851 35.3732 33.267C35.5985 32.903 35.8932 32.6213 36.2572 32.422C36.6299 32.2227 37.0372 32.123 37.4792 32.123C37.8172 32.123 38.1205 32.162 38.3892 32.24C38.6665 32.3093 38.9005 32.422 39.0912 32.578C39.2905 32.734 39.4422 32.9377 39.5462 33.189C39.6589 33.4317 39.7152 33.7263 39.7152 34.073V39H38.6102V34.593C38.6102 34.385 38.5929 34.19 38.5582 34.008C38.5235 33.826 38.4585 33.67 38.3632 33.54C38.2679 33.4013 38.1335 33.293 37.9602 33.215C37.7955 33.137 37.5789 33.098 37.3102 33.098C36.7642 33.098 36.3352 33.254 36.0232 33.566C35.7112 33.878 35.5552 34.294 35.5552 34.814V39H34.4502V34.593C34.4502 34.3763 34.4285 34.177 34.3852 33.995C34.3505 33.813 34.2855 33.657 34.1902 33.527C34.0949 33.3883 33.9649 33.2843 33.8002 33.215C33.6442 33.137 33.4405 33.098 33.1892 33.098C32.8685 33.098 32.5912 33.163 32.3572 33.293C32.1319 33.423 31.9455 33.579 31.7982 33.761C31.6595 33.943 31.5555 34.1337 31.4862 34.333C31.4255 34.5237 31.3952 34.684 31.3952 34.814V39H30.2902V32.279ZM46.9272 38.974C46.7365 39.0867 46.4722 39.143 46.1342 39.143C45.8482 39.143 45.6185 39.065 45.4452 38.909C45.2805 38.7443 45.1982 38.48 45.1982 38.116C44.8949 38.48 44.5395 38.7443 44.1322 38.909C43.7335 39.065 43.3002 39.143 42.8322 39.143C42.5289 39.143 42.2385 39.1083 41.9612 39.039C41.6925 38.9697 41.4585 38.8613 41.2592 38.714C41.0599 38.5667 40.8995 38.376 40.7782 38.142C40.6655 37.8993 40.6092 37.609 40.6092 37.271C40.6092 36.8897 40.6742 36.5777 40.8042 36.335C40.9342 36.0923 41.1032 35.8973 41.3112 35.75C41.5279 35.594 41.7705 35.477 42.0392 35.399C42.3165 35.321 42.5982 35.256 42.8842 35.204C43.1875 35.1433 43.4735 35.1 43.7422 35.074C44.0195 35.0393 44.2622 34.996 44.4702 34.944C44.6782 34.8833 44.8429 34.801 44.9642 34.697C45.0855 34.5843 45.1462 34.424 45.1462 34.216C45.1462 33.9733 45.0985 33.7783 45.0032 33.631C44.9165 33.4837 44.7995 33.371 44.6522 33.293C44.5135 33.215 44.3532 33.163 44.1712 33.137C43.9979 33.111 43.8245 33.098 43.6512 33.098C43.1832 33.098 42.7932 33.189 42.4812 33.371C42.1692 33.5443 42.0002 33.878 41.9742 34.372H40.8692C40.8865 33.956 40.9732 33.605 41.1292 33.319C41.2852 33.033 41.4932 32.8033 41.7532 32.63C42.0132 32.448 42.3079 32.318 42.6372 32.24C42.9752 32.162 43.3349 32.123 43.7162 32.123C44.0195 32.123 44.3185 32.1447 44.6132 32.188C44.9165 32.2313 45.1895 32.3223 45.4322 32.461C45.6749 32.591 45.8699 32.7773 46.0172 33.02C46.1645 33.2627 46.2382 33.579 46.2382 33.969V37.427C46.2382 37.687 46.2512 37.8777 46.2772 37.999C46.3119 38.1203 46.4159 38.181 46.5892 38.181C46.6845 38.181 46.7972 38.1593 46.9272 38.116V38.974ZM45.1332 35.529C44.9945 35.633 44.8125 35.711 44.5872 35.763C44.3619 35.8063 44.1235 35.8453 43.8722 35.88C43.6295 35.906 43.3825 35.9407 43.1312 35.984C42.8799 36.0187 42.6545 36.0793 42.4552 36.166C42.2559 36.2527 42.0912 36.3783 41.9612 36.543C41.8399 36.699 41.7792 36.9157 41.7792 37.193C41.7792 37.375 41.8139 37.531 41.8832 37.661C41.9612 37.7823 42.0565 37.882 42.1692 37.96C42.2905 38.038 42.4292 38.0943 42.5852 38.129C42.7412 38.1637 42.9059 38.181 43.0792 38.181C43.4432 38.181 43.7552 38.1333 44.0152 38.038C44.2752 37.934 44.4875 37.8083 44.6522 37.661C44.8169 37.505 44.9382 37.3403 45.0162 37.167C45.0942 36.985 45.1332 36.816 45.1332 36.66V35.529ZM53.3536 38.428C53.3536 39.5287 53.1023 40.352 52.5996 40.898C52.097 41.444 51.3083 41.717 50.2336 41.717C49.9216 41.717 49.601 41.6823 49.2716 41.613C48.951 41.5437 48.6563 41.431 48.3876 41.275C48.1276 41.119 47.911 40.9153 47.7376 40.664C47.5643 40.4127 47.469 40.105 47.4516 39.741H48.5566C48.5653 39.9403 48.626 40.1093 48.7386 40.248C48.86 40.3867 49.003 40.4993 49.1676 40.586C49.341 40.6727 49.5273 40.7333 49.7266 40.768C49.926 40.8113 50.1166 40.833 50.2986 40.833C50.6626 40.833 50.9703 40.768 51.2216 40.638C51.473 40.5167 51.681 40.3433 51.8456 40.118C52.0103 39.9013 52.1273 39.637 52.1966 39.325C52.2746 39.013 52.3136 38.6707 52.3136 38.298V37.856H52.2876C52.097 38.272 51.8066 38.5797 51.4166 38.779C51.0353 38.9697 50.628 39.065 50.1946 39.065C49.692 39.065 49.2543 38.974 48.8816 38.792C48.509 38.61 48.197 38.3673 47.9456 38.064C47.6943 37.752 47.5036 37.3923 47.3736 36.985C47.2523 36.569 47.1916 36.1313 47.1916 35.672C47.1916 35.2733 47.2436 34.866 47.3476 34.45C47.4516 34.0253 47.625 33.644 47.8676 33.306C48.1103 32.9593 48.431 32.6777 48.8296 32.461C49.2283 32.2357 49.718 32.123 50.2986 32.123C50.7233 32.123 51.1133 32.2183 51.4686 32.409C51.824 32.591 52.1013 32.8683 52.3006 33.241H52.3136V32.279H53.3536V38.428ZM50.2596 38.103C50.6236 38.103 50.9313 38.0293 51.1826 37.882C51.4426 37.726 51.6506 37.5267 51.8066 37.284C51.9626 37.0327 52.0753 36.751 52.1446 36.439C52.2226 36.127 52.2616 35.815 52.2616 35.503C52.2616 35.2083 52.227 34.918 52.1576 34.632C52.0883 34.346 51.9756 34.0903 51.8196 33.865C51.6723 33.631 51.4773 33.4447 51.2346 33.306C50.992 33.1673 50.6973 33.098 50.3506 33.098C49.9953 33.098 49.692 33.1673 49.4406 33.306C49.1893 33.436 48.9813 33.6137 48.8166 33.839C48.6606 34.0643 48.5436 34.3243 48.4656 34.619C48.3963 34.9137 48.3616 35.2213 48.3616 35.542C48.3616 35.8453 48.392 36.1487 48.4526 36.452C48.5133 36.7553 48.6173 37.0327 48.7646 37.284C48.912 37.5267 49.107 37.726 49.3496 37.882C49.5923 38.0293 49.8956 38.103 50.2596 38.103ZM59.2875 34.996C59.2701 34.736 59.2095 34.489 59.1055 34.255C59.0101 34.021 58.8758 33.8217 58.7025 33.657C58.5378 33.4837 58.3385 33.3493 58.1045 33.254C57.8791 33.15 57.6278 33.098 57.3505 33.098C57.0645 33.098 56.8045 33.15 56.5705 33.254C56.3451 33.3493 56.1501 33.4837 55.9855 33.657C55.8208 33.8303 55.6908 34.034 55.5955 34.268C55.5001 34.4933 55.4438 34.736 55.4265 34.996H59.2875ZM60.3535 36.868C60.2061 37.622 59.8811 38.1897 59.3785 38.571C58.8758 38.9523 58.2431 39.143 57.4805 39.143C56.9431 39.143 56.4751 39.0563 56.0765 38.883C55.6865 38.7097 55.3571 38.467 55.0885 38.155C54.8198 37.843 54.6161 37.4703 54.4775 37.037C54.3475 36.6037 54.2738 36.1313 54.2565 35.62C54.2565 35.1087 54.3345 34.6407 54.4905 34.216C54.6465 33.7913 54.8631 33.423 55.1405 33.111C55.4265 32.799 55.7601 32.5563 56.1415 32.383C56.5315 32.2097 56.9561 32.123 57.4155 32.123C58.0135 32.123 58.5075 32.2487 58.8975 32.5C59.2961 32.7427 59.6125 33.0547 59.8465 33.436C60.0891 33.8173 60.2538 34.2333 60.3405 34.684C60.4358 35.1347 60.4748 35.5637 60.4575 35.971H55.4265C55.4178 36.2657 55.4525 36.5473 55.5305 36.816C55.6085 37.076 55.7341 37.31 55.9075 37.518C56.0808 37.7173 56.3018 37.8777 56.5705 37.999C56.8391 38.1203 57.1555 38.181 57.5195 38.181C57.9875 38.181 58.3688 38.0727 58.6635 37.856C58.9668 37.6393 59.1661 37.31 59.2615 36.868H60.3535Z" fill="#EBEBF5" fill-opacity="0.6"/>
</svg>
