<svg width="68" height="68" viewBox="0 0 68 68" fill="none" xmlns="http://www.w3.org/2000/svg">
<rect width="68" height="68" fill="#131313"/>
<path d="M10.631 47.86H12.191L15.171 52.65H15.191V47.86H16.661V55H15.091L12.121 50.22H12.101V55H10.631V47.86ZM18.9031 51.46C18.9031 51.76 18.9365 52.0533 19.0031 52.34C19.0765 52.62 19.1898 52.8733 19.3431 53.1C19.4965 53.3267 19.6965 53.51 19.9431 53.65C20.1898 53.7833 20.4898 53.85 20.8431 53.85C21.1965 53.85 21.4965 53.7833 21.7431 53.65C21.9898 53.51 22.1898 53.3267 22.3431 53.1C22.4965 52.8733 22.6065 52.62 22.6731 52.34C22.7465 52.0533 22.7831 51.76 22.7831 51.46C22.7831 51.1467 22.7465 50.8433 22.6731 50.55C22.6065 50.2567 22.4965 49.9967 22.3431 49.77C22.1898 49.5367 21.9898 49.3533 21.7431 49.22C21.4965 49.08 21.1965 49.01 20.8431 49.01C20.4898 49.01 20.1898 49.08 19.9431 49.22C19.6965 49.3533 19.4965 49.5367 19.3431 49.77C19.1898 49.9967 19.0765 50.2567 19.0031 50.55C18.9365 50.8433 18.9031 51.1467 18.9031 51.46ZM17.3331 51.46C17.3331 50.9267 17.4131 50.4333 17.5731 49.98C17.7331 49.52 17.9631 49.12 18.2631 48.78C18.5631 48.44 18.9298 48.1733 19.3631 47.98C19.8031 47.7867 20.2965 47.69 20.8431 47.69C21.3965 47.69 21.8898 47.7867 22.3231 47.98C22.7565 48.1733 23.1231 48.44 23.4231 48.78C23.7231 49.12 23.9531 49.52 24.1131 49.98C24.2731 50.4333 24.3531 50.9267 24.3531 51.46C24.3531 51.98 24.2731 52.4667 24.1131 52.92C23.9531 53.3667 23.7231 53.7567 23.4231 54.09C23.1231 54.4233 22.7565 54.6867 22.3231 54.88C21.8898 55.0667 21.3965 55.16 20.8431 55.16C20.2965 55.16 19.8031 55.0667 19.3631 54.88C18.9298 54.6867 18.5631 54.4233 18.2631 54.09C17.9631 53.7567 17.7331 53.3667 17.5731 52.92C17.4131 52.4667 17.3331 51.98 17.3331 51.46ZM27.4095 47.86H28.9795V55H27.4095V47.86ZM29.9587 47.86H32.1687L33.8387 52.77H33.8587L35.4387 47.86H37.6487V55H36.1787V49.94H36.1587L34.4087 55H33.1987L31.4487 49.99H31.4287V55H29.9587V47.86ZM40.431 52.24H42.281L41.381 49.62H41.361L40.431 52.24ZM40.581 47.86H42.191L44.861 55H43.231L42.691 53.41H40.021L39.461 55H37.881L40.581 47.86ZM50.2367 54.19C49.9567 54.55 49.6467 54.8033 49.3067 54.95C48.9667 55.09 48.6234 55.16 48.2767 55.16C47.7301 55.16 47.2367 55.0667 46.7967 54.88C46.3634 54.6867 45.9967 54.4233 45.6967 54.09C45.3967 53.7567 45.1667 53.3667 45.0067 52.92C44.8467 52.4667 44.7667 51.98 44.7667 51.46C44.7667 50.9267 44.8467 50.4333 45.0067 49.98C45.1667 49.52 45.3967 49.12 45.6967 48.78C45.9967 48.44 46.3634 48.1733 46.7967 47.98C47.2367 47.7867 47.7301 47.69 48.2767 47.69C48.6434 47.69 48.9967 47.7467 49.3367 47.86C49.6834 47.9667 49.9934 48.1267 50.2667 48.34C50.5467 48.5533 50.7767 48.8167 50.9567 49.13C51.1367 49.4433 51.2467 49.8033 51.2867 50.21H49.7867C49.6934 49.81 49.5134 49.51 49.2467 49.31C48.9801 49.11 48.6567 49.01 48.2767 49.01C47.9234 49.01 47.6234 49.08 47.3767 49.22C47.1301 49.3533 46.9301 49.5367 46.7767 49.77C46.6234 49.9967 46.5101 50.2567 46.4367 50.55C46.3701 50.8433 46.3367 51.1467 46.3367 51.46C46.3367 51.76 46.3701 52.0533 46.4367 52.34C46.5101 52.62 46.6234 52.8733 46.7767 53.1C46.9301 53.3267 47.1301 53.51 47.3767 53.65C47.6234 53.7833 47.9234 53.85 48.2767 53.85C48.7967 53.85 49.1967 53.72 49.4767 53.46C49.7634 53.1933 49.9301 52.81 49.9767 52.31H48.3967V51.14H51.3967V55H50.3967L50.2367 54.19ZM52.2646 47.86H57.6046V49.18H53.8346V50.71H57.2946V51.93H53.8346V53.68H57.6846V55H52.2646V47.86Z" fill="white" fill-opacity="0.3"/>
<path d="M34.5459 12.3714C35.168 13.9329 37.2375 14.2503 38.3039 12.9681C38.6467 12.5618 39.3069 12.7776 39.345 13.3109C39.4592 14.9867 41.3128 15.9389 42.7348 15.0375C43.1791 14.7582 43.7504 15.1645 43.6235 15.685C43.2172 17.3101 44.6899 18.7828 46.315 18.3765C46.8229 18.2496 47.2418 18.8082 46.9625 19.2652C46.0738 20.6872 47.0133 22.5408 48.6891 22.655C49.2224 22.6931 49.4382 23.3533 49.0319 23.6961C47.7497 24.7752 48.0671 26.832 49.6286 27.4541C50.1238 27.6572 50.1238 28.3428 49.6286 28.5459C48.0671 29.168 47.7497 31.2375 49.0319 32.3039C49.4382 32.6467 49.2224 33.3069 48.6891 33.345C47.0133 33.4592 46.0738 35.3128 46.9625 36.7348C47.2418 37.1791 46.8355 37.7504 46.315 37.6235C44.6899 37.2172 43.2172 38.6899 43.6235 40.315C43.7504 40.8229 43.1918 41.2418 42.7348 40.9625C41.3128 40.0738 39.4592 41.0133 39.345 42.6891C39.3069 43.2224 38.6467 43.4382 38.3039 43.0319C37.2248 41.7497 35.168 42.0671 34.5459 43.6286C34.3428 44.1238 33.6572 44.1238 33.4541 43.6286C32.832 42.0671 30.7625 41.7497 29.6961 43.0319C29.3533 43.4382 28.6931 43.2224 28.655 42.6891C28.5408 41.0133 26.6872 40.0611 25.2652 40.9625C24.8209 41.2418 24.2496 40.8355 24.3765 40.315C24.7828 38.6899 23.3101 37.2172 21.685 37.6235C21.1771 37.7504 20.7582 37.1918 21.0375 36.7348C21.9262 35.3128 20.9867 33.4592 19.3109 33.345C18.7776 33.3069 18.5618 32.6467 18.9681 32.3039C20.2503 31.2248 19.9329 29.168 18.3714 28.5459C17.8762 28.3428 17.8762 27.6572 18.3714 27.4541C19.9329 26.832 20.2503 24.7625 18.9681 23.6961C18.5618 23.3533 18.7776 22.6931 19.3109 22.655C20.9867 22.5408 21.9262 20.6872 21.0375 19.2652C20.7582 18.8209 21.1645 18.2496 21.685 18.3765C23.3101 18.7828 24.7828 17.3101 24.3765 15.685C24.2496 15.1771 24.8082 14.7582 25.2652 15.0375C26.6872 15.9262 28.5408 14.9867 28.655 13.3109C28.6931 12.7776 29.3533 12.5618 29.6961 12.9681C30.7752 14.2503 32.832 13.9329 33.4541 12.3714C33.6572 11.8762 34.3428 11.8762 34.5459 12.3714Z" fill="white" fill-opacity="0.3"/>
<path d="M27.4839 34.5229C27.3234 34.3625 27.2155 34.1743 27.1602 33.9585C27.1104 33.7371 27.1131 33.5213 27.1685 33.311C27.2238 33.0952 27.3262 32.9126 27.4756 32.7632L32.2153 28.0151L27.4756 23.2754C27.3262 23.126 27.2238 22.9434 27.1685 22.7275C27.1187 22.5117 27.1187 22.2959 27.1685 22.0801C27.2238 21.8643 27.3289 21.6761 27.4839 21.5156C27.6444 21.3496 27.8325 21.2417 28.0483 21.1919C28.2697 21.1421 28.4883 21.1421 28.7041 21.1919C28.9199 21.2417 29.1053 21.3441 29.2603 21.499L34 26.2305L38.7314 21.499C38.8864 21.3441 39.0718 21.2417 39.2876 21.1919C39.5034 21.1366 39.7165 21.1366 39.9268 21.1919C40.1426 21.2472 40.3335 21.3551 40.4995 21.5156C40.66 21.6761 40.7679 21.8643 40.8232 22.0801C40.8786 22.2959 40.8786 22.5117 40.8232 22.7275C40.7734 22.9378 40.6711 23.1232 40.5161 23.2837L35.7847 28.0151L40.5161 32.7549C40.6711 32.9098 40.7734 33.0952 40.8232 33.311C40.873 33.5269 40.8703 33.7427 40.8149 33.9585C40.7651 34.1743 40.66 34.3625 40.4995 34.5229C40.339 34.6834 40.1509 34.7886 39.9351 34.8384C39.7192 34.8937 39.5034 34.8965 39.2876 34.8467C39.0718 34.7969 38.8864 34.6917 38.7314 34.5312L34 29.7998L29.2603 34.5396C29.1053 34.689 28.9199 34.7886 28.7041 34.8384C28.4938 34.8937 28.278 34.8937 28.0566 34.8384C27.8408 34.7886 27.6499 34.6834 27.4839 34.5229Z" fill="#131313"/>
</svg>
