<svg width="32" height="32" viewBox="0 0 32 32" fill="none" xmlns="http://www.w3.org/2000/svg">
<g clip-path="url(#clip0_574_2283)">
<path d="M16.5399 0.368402C17.1624 1.93093 19.233 2.24851 20.3001 0.965465C20.6431 0.558954 21.3037 0.774913 21.3418 1.30846C21.4561 2.98531 23.3109 3.93807 24.7336 3.03613C25.1783 2.75665 25.7499 3.16316 25.6229 3.684C25.2164 5.31005 26.69 6.78365 28.316 6.37714C28.8242 6.2501 29.2434 6.80905 28.9639 7.26638C28.0746 8.68917 29.0147 10.5439 30.6916 10.6582C31.2251 10.6963 31.4411 11.3569 31.0346 11.6999C29.7515 12.7797 30.0691 14.8376 31.6316 15.4601C32.127 15.6634 32.127 16.3493 31.6316 16.5526C30.0691 17.1751 29.7515 19.2457 31.0346 20.3128C31.4411 20.6558 31.2251 21.3164 30.6916 21.3545C29.0147 21.4688 28.0746 23.3235 28.9639 24.7463C29.2434 25.191 28.8369 25.7626 28.316 25.6356C26.69 25.2291 25.2164 26.7027 25.6229 28.3287C25.7499 28.8368 25.191 29.2561 24.7336 28.9766C23.3109 28.0873 21.4561 29.0274 21.3418 30.7043C21.3037 31.2378 20.6431 31.4538 20.3001 31.0472C19.2203 29.7642 17.1624 30.0818 16.5399 31.6443C16.3367 32.1397 15.6507 32.1397 15.4474 31.6443C14.8249 30.0818 12.7543 29.7642 11.6872 31.0472C11.3442 31.4538 10.6836 31.2378 10.6455 30.7043C10.5312 29.0274 8.67647 28.0746 7.25368 28.9766C6.80906 29.2561 6.23741 28.8495 6.36444 28.3287C6.77095 26.7027 5.29735 25.2291 3.67131 25.6356C3.16317 25.7626 2.74396 25.2037 3.02343 24.7463C3.91267 23.3235 2.97262 21.4688 1.29576 21.3545C0.762217 21.3164 0.546259 20.6558 0.952769 20.3128C2.23582 19.233 1.91823 17.1751 0.355707 16.5526C-0.139728 16.3493 -0.139728 15.6634 0.355707 15.4601C1.91823 14.8376 2.23582 12.767 0.952769 11.6999C0.546259 11.3569 0.762217 10.6963 1.29576 10.6582C2.97262 10.5439 3.91267 8.68917 3.02343 7.26638C2.74396 6.82176 3.15047 6.2501 3.67131 6.37714C5.29735 6.78365 6.77095 5.31005 6.36444 3.684C6.23741 3.17587 6.79636 2.75665 7.25368 3.03613C8.67647 3.92537 10.5312 2.98531 10.6455 1.30846C10.6836 0.774913 11.3442 0.558954 11.6872 0.965465C12.767 2.24851 14.8249 1.93093 15.4474 0.368402C15.6507 -0.127032 16.3367 -0.127032 16.5399 0.368402Z" fill="#3C3C43" fill-opacity="0.6"/>
</g>
<defs>
<clipPath id="clip0_574_2283">
<rect width="32" height="32" fill="white"/>
</clipPath>
</defs>
</svg>
